<svg width="24" height="24" viewBox="0 0 24 24" fill="none" xmlns="http://www.w3.org/2000/svg">
<path d="M6.55508 12.0001L13.9051 19.3501C14.1551 19.6001 14.2761 19.8918 14.2681 20.2251C14.2601 20.5584 14.1307 20.8501 13.8801 21.1001C13.6294 21.3501 13.3377 21.4751 13.0051 21.4751C12.6724 21.4751 12.3807 21.3501 12.1301 21.1001L4.43008 13.4251C4.23008 13.2251 4.08008 13.0001 3.98008 12.7501C3.88008 12.5001 3.83008 12.2501 3.83008 12.0001C3.83008 11.7501 3.88008 11.5001 3.98008 11.2501C4.08008 11.0001 4.23008 10.7751 4.43008 10.5751L12.1301 2.87509C12.3801 2.62509 12.6761 2.50409 13.0181 2.51209C13.3601 2.52009 13.6557 2.64942 13.9051 2.90009C14.1544 3.15076 14.2794 3.44242 14.2801 3.77509C14.2807 4.10776 14.1557 4.39942 13.9051 4.65009L6.55508 12.0001Z" fill="#1A1A1A"/>
</svg>
