<svg width="16" height="16" viewBox="0 0 16 16" fill="none" xmlns="http://www.w3.org/2000/svg">
<path d="M15.3392 3.92151C15.0999 3.36729 14.7547 2.86506 14.3231 2.44294C13.8912 2.01956 13.382 1.6831 12.8231 1.45187C12.2436 1.21114 11.6221 1.08792 10.9946 1.08937C10.1142 1.08937 9.25529 1.33044 8.50886 1.7858C8.33029 1.89473 8.16065 2.01437 7.99993 2.14473C7.83922 2.01437 7.66957 1.89473 7.491 1.7858C6.74457 1.33044 5.88564 1.08937 5.00529 1.08937C4.37136 1.08937 3.75707 1.2108 3.17672 1.45187C2.616 1.68401 2.11064 2.01794 1.67672 2.44294C1.24457 2.86459 0.899355 3.36693 0.660645 3.92151C0.41243 4.4983 0.285645 5.1108 0.285645 5.74115C0.285645 6.3358 0.407073 6.95544 0.648145 7.5858C0.84993 8.11258 1.13922 8.65901 1.50886 9.2108C2.09457 10.084 2.89993 10.9947 3.89993 11.9179C5.55707 13.4483 7.19815 14.5054 7.26779 14.5483L7.691 14.8197C7.8785 14.9394 8.11957 14.9394 8.30707 14.8197L8.73029 14.5483C8.79993 14.5037 10.4392 13.4483 12.0981 11.9179C13.0981 10.9947 13.9035 10.084 14.4892 9.2108C14.8589 8.65901 15.1499 8.11258 15.3499 7.5858C15.591 6.95544 15.7124 6.3358 15.7124 5.74115C15.7142 5.1108 15.5874 4.4983 15.3392 3.92151ZM7.99993 13.4072C7.99993 13.4072 1.64279 9.33401 1.64279 5.74115C1.64279 3.92151 3.14814 2.44651 5.00529 2.44651C6.31065 2.44651 7.44279 3.17508 7.99993 4.23937C8.55707 3.17508 9.68922 2.44651 10.9946 2.44651C12.8517 2.44651 14.3571 3.92151 14.3571 5.74115C14.3571 9.33401 7.99993 13.4072 7.99993 13.4072Z" fill="#93959D"/>
</svg>
