<svg width="16" height="16" viewBox="0 0 16 16" fill="none" xmlns="http://www.w3.org/2000/svg">
<path d="M13.7881 1.41217C14.0159 1.33003 14.2711 1.38642 14.4424 1.55768C14.6137 1.72895 14.67 1.98414 14.5879 2.21198L10.2549 14.212C10.249 14.2283 10.2426 14.2451 10.2354 14.2608C10.1563 14.4333 10.0288 14.5792 9.86914 14.6817C9.70933 14.7843 9.5229 14.8389 9.33301 14.8389C9.14325 14.8389 8.95755 14.7842 8.79785 14.6817C8.63813 14.5792 8.51075 14.4333 8.43164 14.2608V14.2598L6.2002 9.79889L1.74023 7.56744C1.73698 7.56595 1.73371 7.56409 1.73047 7.56256L1.7207 7.55866L1.72168 7.55768C1.55724 7.47811 1.41717 7.35618 1.31836 7.20221C1.24137 7.08224 1.191 6.94771 1.1709 6.80768L1.16113 6.66705L1.1709 6.52545C1.19103 6.38554 1.24142 6.25081 1.31836 6.13092C1.42081 5.97138 1.56694 5.84477 1.73926 5.76569L1.78809 5.74518L13.7881 1.41217ZM2.80762 6.70514L6.94629 8.77448L7.03223 8.82623C7.11376 8.88499 7.18018 8.96302 7.22559 9.05377L9.29395 13.1915L12.96 3.03912L2.80762 6.70514Z" fill="white"/>
</svg>
