<svg width="83" height="55" viewBox="0 0 83 55" fill="none" xmlns="http://www.w3.org/2000/svg">
<path d="M5.35497 0H6.75663L6.80113 0.0152539C7.21989 0.156591 7.6475 0.219283 8.08344 0.368121C9.66982 0.909739 10.9567 2.02588 11.6899 3.53413C12.2916 4.77214 12.6915 6.39375 13.0929 7.74252C13.7347 9.83834 14.3607 11.9389 14.9709 14.044L19.0429 27.6002L20.7171 33.1759C21.0419 34.2663 21.3563 35.4007 21.7054 36.4809C21.9625 35.7709 22.2138 34.8114 22.4423 34.0662L24.1129 28.5629L29.0575 12.2646L30.5887 7.19392C31.4872 4.25822 31.9471 2.20441 35.0115 0.769758C35.5758 0.509675 36.1672 0.312666 36.7751 0.18234C37.0053 0.131245 37.4336 0.0620361 37.6361 0H38.9244C39.4883 0.143182 40.0201 0.211499 40.5808 0.387538C42.285 0.936442 43.7312 2.08329 44.6495 3.6146C45.3368 4.76464 45.7597 6.43806 46.157 7.74894L47.4862 12.1466L52.8898 29.6625L54.3128 34.2671C54.4986 34.8692 54.7941 35.9401 55.0156 36.4972C57.4775 28.5618 59.7712 20.5158 62.1473 12.5501L63.8855 6.67015C64.6024 4.24722 64.93 1.97286 67.391 0.761906C68.2329 0.347788 68.7675 0.225705 69.6679 0H71.0039L71.048 0.014548C71.4673 0.151189 71.9007 0.203616 72.3288 0.347625C73.783 0.823263 74.9889 1.85283 75.683 3.21126C76.23 4.27222 76.4415 5.53593 76.2581 6.7188C76.186 7.18606 75.8436 8.22314 75.6894 8.69686L67.8436 32.5905L65.5664 39.5602L64.8399 41.7831C64.7161 42.1627 64.5159 42.7346 64.4282 43.111C66.5636 43.1409 68.0543 43.1513 70.9312 43.1417C72.6702 43.1405 75.8153 43.0209 77.3935 43.3108C78.731 43.5592 79.9488 44.0761 80.9135 44.8043C81.752 45.4443 82.3833 46.2164 82.7599 47.063C82.8602 47.2919 82.9083 47.5343 83 47.7433V49.7065C82.8106 50.1324 82.7788 50.3757 82.5128 50.8307C81.6964 52.228 80.1635 53.3291 78.2503 53.8922C76.6608 54.3508 75.6939 54.2491 74.0553 54.2483L70.3499 54.2475L63.3396 54.2519L56.7298 54.2602C56.3092 54.2598 55.8951 54.2582 55.4738 54.2682C55.1081 54.273 54.7213 54.3312 54.3568 54.2989C51.611 54.0545 49.1848 52.5168 47.7814 50.1579C47.1482 49.0936 46.8971 47.9164 46.5415 46.7491L45.36 42.9132L40.399 26.9682L38.9168 22.2358C38.7081 21.5559 38.4149 20.4125 38.1758 19.7919C37.9952 20.2383 37.6727 21.4613 37.5182 21.9847L36.2493 26.1633L31.3259 42.1519C30.8953 43.6079 30.4496 45.0595 29.9889 46.5067C29.5231 47.9969 29.3689 48.9588 28.5247 50.327C27.37 52.2516 25.4008 53.6094 23.2199 54.125C22.5946 54.273 21.2808 54.3145 20.608 54.2543C19.533 54.1581 18.178 53.6656 17.2552 53.1042C15.9786 52.3277 14.7528 51.0819 14.0996 49.7268C13.4053 48.2326 12.976 46.4181 12.4554 44.8437L8.84111 33.8262L3.15362 16.5178L1.40171 11.1282C0.435984 8.2306 -0.934672 5.54953 0.913941 2.68536C2.01428 0.98056 3.47579 0.451699 5.35497 0Z" fill="#DADADA"/>
</svg>
