<svg width="56" height="36" viewBox="0 0 56 36" fill="none" xmlns="http://www.w3.org/2000/svg">
<path d="M3.54968 0H4.47881L4.50831 0.0101115C4.78589 0.1038 5.06935 0.145357 5.35833 0.244019C6.4099 0.603045 7.26297 1.34291 7.74893 2.34269C8.14784 3.16334 8.4129 4.23827 8.67897 5.13234C9.1044 6.52161 9.51937 7.91399 9.92389 9.30941L12.6231 18.2955L13.7329 21.9915C13.9482 22.7143 14.1566 23.4663 14.388 24.1823C14.5584 23.7117 14.725 23.0757 14.8764 22.5817L15.9838 18.9337L19.2616 8.12993L20.2765 4.76868C20.8722 2.82268 21.177 1.46125 23.2083 0.510255C23.5823 0.337852 23.9744 0.207259 24.3773 0.120869C24.53 0.0869994 24.8138 0.0411223 24.9481 0H25.8021C26.1759 0.0949123 26.5284 0.140198 26.9001 0.25689C28.0297 0.620746 28.9884 1.38097 29.5971 2.39604C30.0527 3.15837 30.333 4.26764 30.5964 5.1366L31.4775 8.05171L35.0594 19.6626L36.0026 22.7149C36.1258 23.114 36.3218 23.8239 36.4686 24.1932C38.1005 18.9329 39.6209 13.5994 41.196 8.31915L42.3482 4.42149C42.8234 2.81538 43.0406 1.30776 44.6719 0.50505C45.23 0.230541 45.5844 0.149615 46.1812 0H47.0668L47.0961 0.00964352C47.374 0.10022 47.6613 0.134972 47.9451 0.230433C48.909 0.545722 49.7084 1.2282 50.1685 2.12867C50.5311 2.83196 50.6713 3.66964 50.5497 4.45374C50.5019 4.76347 50.2749 5.45093 50.1727 5.76494L44.9719 21.6035L43.4624 26.2236L42.9808 27.697C42.8988 27.9487 42.7661 28.3277 42.7079 28.5773C44.1235 28.5971 45.1116 28.604 47.0186 28.5976C48.1714 28.5969 50.2562 28.5175 51.3023 28.7097C52.189 28.8744 52.9962 29.217 53.6357 29.6997C54.1915 30.124 54.6099 30.6357 54.8596 31.197C54.9261 31.3487 54.958 31.5094 55.0188 31.6479V32.9493C54.8932 33.2316 54.8721 33.3929 54.6958 33.6945C54.1546 34.6208 53.1385 35.3506 51.8703 35.7239C50.8166 36.0279 50.1757 35.9604 49.0895 35.9599L46.6333 35.9594L41.9863 35.9623L37.6048 35.9678C37.3261 35.9676 37.0516 35.9665 36.7723 35.9731C36.5299 35.9763 36.2734 36.0149 36.0319 35.9935C34.2117 35.8314 32.6034 34.8121 31.6732 33.2485C31.2535 32.543 31.087 31.7626 30.8512 30.9889L30.0681 28.4462L26.7796 17.8766L25.797 14.7396C25.6587 14.2889 25.4644 13.531 25.3059 13.1196C25.1861 13.4155 24.9724 14.2262 24.87 14.5731L24.0288 17.3431L20.7652 27.9415C20.4798 28.9067 20.1843 29.8689 19.8789 30.8282C19.5702 31.816 19.4679 32.4536 18.9084 33.3606C18.143 34.6363 16.8376 35.5364 15.3919 35.8782C14.9775 35.9763 14.1065 36.0038 13.6605 35.9639C12.948 35.9002 12.0498 35.5737 11.4381 35.2015C10.5918 34.6868 9.77928 33.861 9.34631 32.9628C8.88607 31.9723 8.6015 30.7695 8.2564 29.7259L5.86056 22.4226L2.09046 10.9493L0.92916 7.37666C0.289004 5.45587 -0.619572 3.67865 0.60583 1.78006C1.33522 0.64999 2.30402 0.299421 3.54968 0Z" fill="#00B890"/>
</svg>
