<svg width="18" height="18" viewBox="0 0 18 18" fill="none" xmlns="http://www.w3.org/2000/svg">
<path d="M9 15.75C8.7875 15.75 8.6095 15.678 8.466 15.534C8.3225 15.39 8.2505 15.212 8.25 15V9.75H3C2.7875 9.75 2.6095 9.678 2.466 9.534C2.3225 9.39 2.2505 9.212 2.25 9C2.2495 8.788 2.3215 8.61 2.466 8.466C2.6105 8.322 2.7885 8.25 3 8.25H8.25V3C8.25 2.7875 8.322 2.6095 8.466 2.466C8.61 2.3225 8.788 2.2505 9 2.25C9.212 2.2495 9.39025 2.3215 9.53475 2.466C9.67925 2.6105 9.751 2.7885 9.75 3V8.25H15C15.2125 8.25 15.3908 8.322 15.5348 8.466C15.6788 8.61 15.7505 8.788 15.75 9C15.7495 9.212 15.6775 9.39025 15.534 9.53475C15.3905 9.67925 15.2125 9.751 15 9.75H9.75V15C9.75 15.2125 9.678 15.3908 9.534 15.5348C9.39 15.6788 9.212 15.7505 9 15.75Z" fill="white"/>
</svg>
