<svg width="40" height="40" viewBox="0 0 40 40" fill="none" xmlns="http://www.w3.org/2000/svg">
<path opacity="0.4" d="M19.9999 36.6834C29.2046 36.6834 36.6666 29.2216 36.6666 20.0167C36.6666 10.812 29.2046 3.3501 19.9999 3.3501C10.7952 3.3501 3.33325 10.812 3.33325 20.0167C3.33325 29.2216 10.7952 36.6834 19.9999 36.6834Z" fill="#292D32"/>
<path d="M20 11.5664C16.55 11.5664 13.75 14.3664 13.75 17.8163C13.75 21.1997 16.4 23.9497 19.9167 24.0497C19.9667 24.0497 20.0333 24.0497 20.0667 24.0497C20.1 24.0497 20.15 24.0497 20.1833 24.0497C20.2 24.0497 20.2167 24.0497 20.2167 24.0497C23.5833 23.933 26.2333 21.1997 26.25 17.8163C26.25 14.3664 23.45 11.5664 20 11.5664Z" fill="#292D32"/>
<path d="M31.3012 32.2666C28.3345 34.9999 24.3678 36.6832 20.0012 36.6832C15.6345 36.6832 11.6678 34.9999 8.70117 32.2666C9.10117 30.7499 10.1845 29.3666 11.7678 28.2999C16.3178 25.2666 23.7178 25.2666 28.2345 28.2999C29.8345 29.3666 30.9012 30.7499 31.3012 32.2666Z" fill="#292D32"/>
</svg>
